<?xml version="1.0" encoding="UTF-8"?>
<svg width="447px" height="322px" viewBox="0 0 447 322" version="1.1" xmlns="http://www.w3.org/2000/svg" xmlns:xlink="http://www.w3.org/1999/xlink">
    <g id="Symbols" stroke="none" stroke-width="1" fill="none" fill-rule="evenodd">
        <g id="hogm" fill-rule="nonzero">
            <path d="M308.633627,190.058518 C303.283622,202.537695 300.429453,216.804373 300.429453,231.783552 C300.429453,254.250236 305.425291,271.366917 315.054465,282.779426 C325.037806,294.550268 336.808649,300.25444 350.716994,300.25444 C357.491999,300.25444 363.912838,298.829439 369.258675,296.333603 C374.608679,293.837768 379.958684,289.558598 385.667022,283.491926 C392.083693,290.983599 397.433698,295.621103 400.642034,297.404437 C404.208703,299.183605 408.487873,300.25444 413.125377,300.25444 C420.971217,300.25444 427.746222,297.046104 433.808727,290.271098 C439.871232,283.491926 442.725401,274.933586 442.725401,264.237744 C442.725401,262.454409 442.725401,261.025242 442.367067,260.671075 C442.0129,260.312741 441.300399,259.958574 440.229565,259.958574 C439.517065,259.958574 438.804564,260.312741 438.44623,260.671075 C438.087897,261.025242 438.087897,262.096076 438.087897,263.521077 C438.087897,269.229415 437.021229,273.508585 435.237895,276.00442 C433.45456,278.146089 431.671225,279.212756 429.529557,279.212756 C426.675388,279.212756 424.179552,277.787755 421.32955,275.29192 C418.475381,272.796084 414.908712,266.73358 410.271208,257.816906 L407.775373,251.0419 C419.546215,227.858548 425.250387,203.608529 425.250387,178.287675 C425.250387,164.025164 423.112885,154.037656 418.475381,147.616818 C415.267045,142.983481 410.629542,140.841812 405.279537,140.841812 C400.642034,140.841812 396.721197,142.625147 393.512861,146.55015 C390.300359,150.11682 388.517024,155.462657 388.517024,162.595996 C388.517024,169.016835 389.946192,174.008505 393.154528,177.216841 C396.008697,180.429344 399.929533,182.212679 404.567037,182.212679 C408.846207,182.212679 412.767043,180.783511 416.333713,178.287675 L418.117048,177.216841 C418.833715,177.216841 419.187882,177.575175 419.546215,178.287675 C420.258716,179.35851 420.612883,181.854345 420.612883,185.421014 C420.612883,203.608529 415.621212,223.579378 405.279537,245.333562 C392.083693,214.662705 379.958684,181.854345 368.546175,146.191816 L364.625338,134.066807 C374.254512,123.012631 381.029518,113.383457 384.596187,105.179284 C388.517024,96.9792771 390.300359,88.4167702 390.300359,79.5042631 C390.300359,65.5959186 386.379522,53.8250759 378.88785,44.1959015 C373.183678,37.4208961 367.121173,33.8542265 359.987834,33.8542265 C351.071161,33.8542265 343.583655,37.7792297 337.162816,45.9792362 C328.604476,56.6792448 324.325306,70.5875893 324.325306,87.7042696 C324.325306,95.9084429 325.39614,105.179284 327.179475,115.879292 C328.96281,126.220967 331.812812,138.345977 335.379481,151.541821 C323.254472,164.379331 314.337798,177.216841 308.633627,190.058518 Z M360.700335,118.733461 C357.133665,104.108449 354.63783,91.9834397 352.854495,81.6417648 C351.071161,71.3000898 350.35866,63.4542502 350.35866,57.3917454 C350.35866,50.2584063 351.429494,45.6250693 353.566996,42.7709003 C355.708664,40.275065 358.2045,38.8458972 361.412836,38.8458972 C366.408673,38.8458972 369.975342,40.9875656 373.183678,45.2667357 C377.104515,51.3292405 379.246183,62.383416 379.246183,77.7209283 C379.246183,91.9834397 377.821182,102.325115 375.32118,109.458454 C372.825345,116.591793 368.904508,123.012631 363.19617,128.362635 L360.700335,118.733461 Z M340.729486,170.800169 C348.221158,197.191857 354.996164,217.875207 361.058669,232.854386 C367.121173,248.187731 374.254512,263.879411 382.812853,279.57109 C379.604517,283.491926 376.750348,285.633595 374.967013,286.704429 C373.183678,287.775263 371.04201,288.487764 368.546175,288.487764 C365.337839,288.487764 362.129503,287.058596 358.917,284.208594 C355.350331,281.712758 351.429494,275.646087 347.150324,266.73358 C341.441986,254.250236 336.091982,241.412726 332.171145,228.216882 C326.821141,210.383534 323.966972,195.762689 323.966972,183.996013 C323.966972,178.646009 325.037806,173.654338 327.179475,169.016835 C329.316977,164.379331 332.171145,160.458495 336.450316,156.891825 L340.729486,170.800169 Z" id="Shape" fill="#76787B"></path>
            <path d="M3.01671548,168.300167 C2.58754847,168.591834 2.30004824,168.879335 2.30004824,169.166835 C2.30004824,169.454335 2.58754847,169.741835 3.01671548,170.029335 L24.904233,170.029335 C25.1917332,170.029335 25.3334,169.887669 25.4792335,169.741835 C25.6250669,169.596002 25.7667337,169.454335 25.7667337,169.166835 C25.7667337,168.879335 25.6250669,168.733501 25.4792335,168.591834 C25.3334,168.446001 25.1917332,168.300167 24.904233,168.300167 L22.1667308,168.300167 L22.1667308,115.750125 L31.3834048,115.750125 L31.3834048,168.300167 L29.0792363,168.300167 C28.7917361,168.300167 28.6459027,168.446001 28.5042359,168.591834 C28.3584024,168.733501 28.2167356,168.879335 28.2167356,169.166835 C28.2167356,169.454335 28.3584024,169.596002 28.5042359,169.741835 C28.6459027,169.887669 28.7917361,170.029335 29.0792363,170.029335 L50.1000865,170.029335 C50.2459199,170.029335 50.5334202,169.887669 50.6750869,169.741835 C50.8209204,169.596002 50.9625872,169.454335 50.9625872,169.166835 C50.9625872,168.879335 50.8209204,168.733501 50.6750869,168.591834 C50.5334202,168.446001 50.2459199,168.300167 50.1000865,168.300167 L45.7792497,168.300167 L45.7792497,65.9292522 L50.1000865,65.9292522 C50.5334202,65.641752 50.8209204,65.3542517 50.8209204,65.0667515 C50.8209204,64.7792513 50.5334202,64.4917511 50.1000865,64.2042508 L28.3584024,64.2042508 C27.9250687,64.4917511 27.6375685,64.7792513 27.6375685,65.0667515 C27.6375685,65.3542517 27.9250687,65.641752 28.3584024,65.9292522 L31.3834048,65.9292522 L31.3834048,114.020957 L22.1667308,114.020957 L22.1667308,65.9292522 L24.4708993,65.9292522 C25.0458998,65.641752 25.3334,65.3542517 25.3334,65.0667515 C25.3334,64.7792513 25.0458998,64.4917511 24.6167328,64.2042508 L3.01671548,64.2042508 C2.58754847,64.4917511 2.30004824,64.7792513 2.30004824,65.0667515 C2.30004824,65.3542517 2.58754847,65.641752 3.01671548,65.9292522 L7.77088595,65.9292522 L7.77088595,168.300167 L3.01671548,168.300167 Z" id="Shape" fill="#231F20"></path>
            <path d="M66.8000998,148.145985 C67.2334335,153.758489 68.2417677,158.366826 69.9709357,161.820996 C71.6959371,165.279332 73.5709386,167.5835 75.5834402,168.879335 C77.7459419,170.175169 80.0501104,170.891836 82.4959457,170.891836 C86.8167825,170.891836 90.4167854,169.021001 93.0084541,165.279332 C96.608457,160.095994 98.4792918,151.454321 98.4792918,139.504311 L98.4792918,124.100132 C98.4792918,114.883458 97.037624,107.541785 94.1584551,101.925114 C91.4251195,96.3126098 87.391783,93.5751077 82.062612,93.5751077 C77.8876087,93.5751077 74.2876058,95.4459425 71.6959371,99.3334456 C67.9542674,104.516783 66.0834326,112.57929 66.0834326,123.666798 L66.0834326,137.345976 C66.0834326,138.929311 66.3709328,142.38348 66.8000998,148.145985 Z M85.9501152,162.54183 C85.9501152,165.279332 85.6626149,167.150167 85.0876145,167.871 C84.512614,168.733501 83.6501133,169.166835 82.4959457,169.166835 C81.4876116,169.166835 80.4792774,168.733501 79.904277,167.725167 C79.0417763,166.429333 78.6084426,163.983497 78.6084426,160.237661 L78.6084426,100.91678 C78.6084426,99.0459454 78.8959428,97.750111 79.6167768,96.8876103 C80.3376107,96.0251096 81.2001114,95.5917759 82.062612,95.5917759 C83.0709462,95.5917759 84.0792803,96.1667764 84.8001142,97.1751105 C85.5209481,98.1834447 85.9501152,100.05428 85.9501152,102.791782 L85.9501152,162.54183 Z" id="Shape" fill="#231F20"></path>
            <path d="M114.458471,64.2042508 C114.170971,64.2042508 113.883471,64.3459176 113.741804,64.4917511 C113.595971,64.6334178 113.454304,64.7792513 113.454304,65.0667515 C113.454304,65.3542517 113.595971,65.5000852 113.741804,65.641752 C113.883471,65.7875854 114.170971,65.9292522 114.458471,65.9292522 L117.341807,65.9292522 L117.341807,168.300167 L114.458471,168.300167 C114.170971,168.300167 114.029304,168.446001 113.883471,168.591834 C113.741804,168.733501 113.595971,168.879335 113.595971,169.166835 C113.595971,169.454335 113.741804,169.596002 113.883471,169.741835 C114.029304,169.887669 114.170971,170.029335 114.458471,170.029335 L132.600152,170.029335 C132.891819,170.029335 133.033486,169.887669 133.17932,169.741835 C133.320986,169.596002 133.46682,169.454335 133.46682,169.166835 C133.46682,168.879335 133.320986,168.733501 133.17932,168.591834 C133.033486,168.446001 132.891819,168.300167 132.600152,168.300167 L129.866817,168.300167 L129.866817,64.2042508 L114.458471,64.2042508 Z" id="Shape" fill="#231F20"></path>
            <path d="M163.846011,107.395952 C163.846011,104.516783 164.708511,101.783448 166.291846,99.3334456 C167.01268,98.1834447 168.021014,97.6084442 168.883515,97.6084442 C169.462682,97.6084442 170.037682,97.8959445 170.471016,98.4709449 C170.900183,98.9042786 171.046017,99.9126127 171.046017,101.062614 L171.046017,168.300167 L169.175182,168.300167 C168.741848,168.591834 168.596015,168.879335 168.596015,169.166835 C168.596015,169.454335 168.741848,169.741835 169.175182,170.029335 L185.012694,170.029335 C185.441861,169.741835 185.587695,169.454335 185.587695,169.166835 C185.587695,168.879335 185.587695,168.733501 185.441861,168.446001 L185.012694,168.300167 L183.42936,168.300167 L183.42936,110.420954 C183.42936,105.958451 184.29186,102.358448 185.875195,99.9126127 C186.883529,98.3251115 187.891863,97.6084442 188.900198,97.6084442 C189.329365,97.6084442 189.762698,97.8959445 190.196032,98.3251115 C190.625199,98.7584451 190.771032,99.4792791 190.771032,100.200113 L190.771032,168.300167 L189.329365,168.300167 C188.900198,168.591834 188.612697,168.879335 188.612697,169.166835 C188.612697,169.454335 188.900198,169.741835 189.329365,170.029335 L205.600211,170.029335 C205.887711,170.029335 206.175211,169.887669 206.462712,169.741835 L206.608545,169.166835 C206.608545,168.879335 206.462712,168.733501 206.321045,168.591834 C206.175211,168.446001 205.887711,168.300167 205.600211,168.300167 L203.296042,168.300167 L203.296042,102.645948 C203.296042,99.7667793 202.575208,97.4626108 200.991874,95.8792762 C199.408539,94.2959416 196.962704,93.5751077 193.504368,93.5751077 C191.204366,93.5751077 189.187698,94.1501081 187.74603,95.1584423 C186.450196,96.1667764 184.866861,98.1834447 183.42936,101.062614 C182.421026,98.1834447 181.412692,96.1667764 179.971024,95.1584423 C178.675189,94.1501081 176.658521,93.5751077 174.066852,93.5751077 C171.76685,93.5751077 169.891849,94.0084413 168.454348,94.870942 C167.158513,95.8792762 165.575179,97.4626108 163.846011,100.05428 L163.846011,94.4376084 L148.729332,94.4376084 C148.295998,94.7292753 148.008498,95.0167755 148.008498,95.3042757 C148.008498,95.5917759 148.295998,95.8792762 148.729332,96.1667764 L151.321001,96.1667764 L151.321001,168.300167 L148.729332,168.300167 C148.295998,168.591834 148.008498,168.879335 148.008498,169.166835 C148.008498,169.454335 148.295998,169.741835 148.729332,170.029335 L165.287679,170.029335 C165.716846,169.741835 166.004346,169.454335 166.004346,169.166835 C166.004346,168.879335 165.862679,168.591834 165.575179,168.446001 L163.846011,168.300167 L163.846011,107.395952 Z" id="Shape" fill="#231F20"></path>
            <path d="M253.112749,132.450139 L253.112749,120.933463 C253.112749,113.300123 251.816915,106.820952 249.083579,101.495947 C246.346077,96.1667764 242.604407,93.5751077 237.562736,93.5751077 C233.387733,93.5751077 229.78773,95.5917759 226.908561,99.7667793 C222.733558,105.670951 220.71689,114.166791 220.71689,125.395966 L220.71689,135.762641 C220.71689,150.450153 222.304391,159.950161 225.325227,164.270998 C228.350229,168.733501 232.237732,170.891836 236.846069,170.891836 C241.883573,170.891836 245.771076,168.012667 248.650245,162.254329 C251.675248,156.637658 253.112749,149.583486 253.112749,141.233479 C253.112749,139.791811 252.971082,138.929311 252.825249,138.495977 C252.537748,138.208477 252.250248,138.06681 251.962748,138.06681 C251.529414,138.06681 251.241914,138.208477 251.100247,138.64181 C250.812747,139.075144 250.666914,140.658479 250.666914,143.391814 C250.379413,152.033488 248.650245,158.80016 245.196076,163.837664 C243.037741,166.862666 240.733572,168.300167 238.141904,168.300167 C236.558569,168.300167 235.404401,167.871 234.683567,166.862666 C233.675233,165.566832 233.246066,162.82933 233.246066,158.654326 L233.246066,132.450139 L253.112749,132.450139 Z M233.246066,130.720971 L233.246066,100.62928 C233.246066,98.7584451 233.675233,97.4626108 234.396067,96.4542766 C235.116901,95.5917759 236.125235,95.1584423 237.133569,95.1584423 C238.141904,95.1584423 239.004404,95.4459425 239.437738,96.1667764 C240.154405,97.1751105 240.587739,98.6167784 240.587739,100.62928 L240.587739,130.720971 L233.246066,130.720971 Z" id="Shape" fill="#231F20"></path>
            <path d="M271.25443,168.300167 L268.233594,168.300167 C267.800261,168.591834 267.51276,168.879335 267.51276,169.166835 C267.51276,169.454335 267.800261,169.741835 268.233594,170.029335 L285.366941,170.029335 C285.800275,169.741835 286.087775,169.454335 286.087775,169.166835 C286.087775,168.879335 285.800275,168.591834 285.366941,168.300167 L283.637773,168.300167 L283.637773,110.566788 C283.637773,105.958451 284.358607,102.645948 285.654442,100.62928 C286.516942,99.3334456 287.525276,98.6167784 288.679444,98.6167784 C289.396111,98.6167784 289.975278,98.9042786 290.262779,99.3334456 C290.691946,99.9126127 290.837779,100.775113 290.837779,102.212615 L290.837779,168.300167 L289.541945,168.300167 C289.254444,168.300167 289.108611,168.446001 288.966944,168.591834 C288.821111,168.733501 288.679444,168.879335 288.679444,169.166835 C288.679444,169.454335 288.821111,169.596002 288.966944,169.741835 C289.108611,169.887669 289.254444,170.029335 289.541945,170.029335 L305.812791,170.029335 C306.100291,170.029335 306.241958,169.887669 306.387792,169.741835 C306.533625,169.596002 306.675292,169.454335 306.675292,169.166835 C306.675292,168.879335 306.533625,168.733501 306.387792,168.591834 C306.241958,168.446001 306.100291,168.300167 305.812791,168.300167 L303.362789,168.300167 L303.362789,105.09595 C303.362789,101.062614 302.500288,98.0376112 300.629454,95.8792762 C299.333619,94.2959416 297.171117,93.5751077 294.291948,93.5751077 C291.98778,93.5751077 290.116945,94.0084413 288.533611,95.0167755 C286.950276,96.0251096 285.221108,97.750111 283.637773,100.200113 L283.637773,94.4376084 L268.233594,94.4376084 C267.800261,94.7292753 267.658594,95.0167755 267.658594,95.3042757 C267.658594,95.5917759 267.658594,95.8792762 267.800261,96.0251096 L268.233594,96.1667764 L271.25443,96.1667764 L271.25443,168.300167 Z" id="Shape" fill="#231F20"></path>
            <path d="M7.33755227,285.741928 C7.33755227,287.900263 7.05005204,289.629431 6.32921813,290.925266 C5.75421767,291.787766 4.89171698,292.5086 3.45004916,293.083601 C2.72921525,293.375268 2.30004824,293.516934 2.15421479,293.662768 C2.00838134,293.804435 2.00838134,293.950268 2.00838134,294.091935 C2.00838134,294.379435 2.00838134,294.525268 2.15421479,294.671102 C2.30004824,294.812769 2.44171502,294.812769 2.58754847,294.812769 L14.966725,294.812769 C15.4000587,294.812769 15.6875589,294.812769 15.8333924,294.671102 C15.9750592,294.525268 15.9750592,294.237768 15.9750592,293.950268 C15.9750592,293.516934 15.8333924,293.229434 15.6875589,293.083601 L12.5208898,292.7961 C11.2250554,292.366933 10.3625547,291.646099 9.92922101,290.637765 C9.49588733,289.629431 9.2083871,287.900263 9.2083871,285.600261 L9.2083871,196.329357 L19.2875618,292.366933 C19.4333953,293.662768 19.5750621,294.379435 19.7208955,294.525268 C19.8625623,294.671102 20.1500625,294.812769 20.4417294,294.812769 L25.0458998,294.812769 C25.3334,294.812769 25.4792335,294.671102 25.6250669,294.525268 C25.7667337,294.379435 26.0542339,293.662768 26.2000674,292.366933 L38.5834106,195.466856 L38.5834106,293.083601 L33.6875733,293.083601 C33.5417399,293.083601 33.4000731,293.229434 33.2542397,293.375268 C33.1084062,293.516934 32.9667394,293.662768 32.9667394,293.950268 C32.9667394,294.237768 33.1084062,294.379435 33.2542397,294.525268 C33.4000731,294.671102 33.5417399,294.812769 33.6875733,294.812769 L56.8667586,294.812769 C57.012592,294.812769 57.012592,294.812769 57.1542588,294.671102 C57.3000922,294.525268 57.3000922,294.237768 57.3000922,293.950268 C57.3000922,293.662768 57.3000922,293.375268 57.1542588,293.229434 C57.012592,293.083601 57.012592,293.083601 56.8667586,293.083601 L52.2584215,293.083601 L52.2584215,190.712685 L56.8667586,190.712685 C57.1542588,190.712685 57.3000922,190.571019 57.5875925,190.425185 C57.7292592,190.283518 57.8750927,190.137685 57.8750927,189.850185 C57.8750927,189.562684 57.7292592,189.416851 57.5875925,189.275184 C57.3000922,189.129351 57.1542588,188.987684 56.8667586,188.987684 L37.5750765,188.987684 L28.9334029,253.921069 L22.1667308,188.987684 L3.16254893,188.987684 C2.8750487,188.987684 2.72921525,189.129351 2.58754847,189.275184 C2.44171502,189.416851 2.30004824,189.562684 2.30004824,189.850185 C2.30004824,190.137685 2.44171502,190.283518 2.58754847,190.425185 C2.72921525,190.571019 2.8750487,190.712685 3.16254893,190.712685 L7.33755227,190.712685 L7.33755227,285.741928 Z" id="Shape" fill="#231F20"></path>
            <path d="M85.9501152,220.375209 C87.8251167,220.375209 89.2626178,220.95021 90.2709519,222.104377 C91.4251195,223.254378 92.00012,224.983546 92.00012,226.996048 L92.00012,247.300231 C90.1292852,248.308565 87.8251167,249.316899 85.0876145,250.1794 C78.8959428,252.196068 75.29594,253.921069 74.0001056,255.216904 C72.7042712,256.658571 72.1292708,258.67524 72.1292708,261.554409 L72.1292708,288.19193 C72.1292708,290.350265 72.8501047,292.2211 74.2876058,293.662768 C75.7292736,294.958602 77.7459419,295.675269 80.4792774,295.675269 C82.783446,295.675269 84.6542808,295.100269 86.2417821,294.091935 C87.9667834,293.083601 89.8376183,290.925266 92.00012,287.758596 C92.7209539,290.637765 93.7251214,292.7961 95.1667892,293.950268 C96.4626236,295.100269 98.4792918,295.675269 100.925127,295.675269 C103.95013,295.675269 106.395965,294.812769 108.558467,292.941934 C110.570968,291.071099 111.725136,289.341931 111.725136,287.758596 L110.862635,286.896096 C110.570968,286.896096 110.141801,287.325263 109.854301,288.046097 C108.700133,290.491932 107.404299,291.646099 106.254298,291.646099 C105.820964,291.646099 105.533464,291.358599 105.10013,290.925266 C104.670963,290.491932 104.52513,289.916931 104.52513,289.196097 L104.52513,228.437716 C104.52513,225.558547 103.375129,223.108545 101.212627,221.23771 C98.9084589,219.366875 95.3126227,218.358541 90.2709519,218.358541 C84.512614,218.358541 80.1917772,219.654375 77.1709415,222.391877 C74.145939,225.125213 72.5626044,228.583549 72.5626044,232.612719 C72.5626044,235.350221 73.1376049,237.362723 74.4334393,238.804391 C75.7292736,240.100225 77.4584417,240.821059 79.7626102,240.821059 C81.9209453,240.821059 83.6501133,240.100225 84.9459477,238.804391 C86.2417821,237.362723 86.9584493,235.637721 86.9584493,233.333553 C86.9584493,231.175218 86.3834488,229.44605 85.0876145,228.004382 C83.7917801,226.708548 82.2084455,225.99188 80.1917772,225.99188 C79.7626102,225.99188 79.1834431,225.99188 78.6084426,226.133547 C77.8876087,226.27938 77.3126082,226.421047 76.5917743,226.708548 C78.7542761,222.533544 81.7751118,220.375209 85.9501152,220.375209 Z M92.00012,278.254422 C92.00012,282.429425 90.9917859,286.029428 89.120951,288.908597 C88.2542837,290.491932 87.391783,291.358599 86.5292823,291.358599 C85.9501152,291.358599 85.5209481,291.071099 85.2334479,290.637765 C84.8001142,290.204432 84.6542808,289.487764 84.6542808,288.47943 L84.6542808,258.67524 C84.6542808,256.083571 85.0876145,254.208569 85.9501152,253.058569 C86.9584493,251.908568 88.8334508,250.7544 92.00012,249.458566 L92.00012,278.254422 Z" id="Shape" fill="#231F20"></path>
            <path d="M123.387645,188.987684 C123.100145,188.987684 122.812645,189.129351 122.666811,189.275184 C122.525144,189.416851 122.379311,189.562684 122.379311,189.850185 C122.379311,190.137685 122.525144,190.283518 122.666811,190.425185 C122.812645,190.571019 123.100145,190.712685 123.387645,190.712685 L126.266814,190.712685 L126.266814,293.083601 L123.387645,293.083601 C123.100145,293.083601 122.954311,293.229434 122.812645,293.375268 C122.666811,293.516934 122.525144,293.662768 122.525144,293.950268 C122.525144,294.237768 122.666811,294.379435 122.812645,294.525268 C122.954311,294.671102 123.100145,294.812769 123.387645,294.812769 L141.529326,294.812769 C141.816827,294.812769 141.96266,294.671102 142.104327,294.525268 C142.25016,294.379435 142.391827,294.237768 142.391827,293.950268 C142.391827,293.662768 142.25016,293.516934 142.104327,293.375268 C141.96266,293.229434 141.816827,293.083601 141.529326,293.083601 L138.791824,293.083601 L138.791824,188.987684 L123.387645,188.987684 Z" id="Shape" fill="#231F20"></path>
            <path d="M161.829343,281.712758 C161.829343,286.462762 162.98351,290.204432 165.141845,292.7961 C166.871013,294.671102 169.462682,295.675269 172.916851,295.675269 C176.658521,295.675269 179.829357,294.091935 182.275192,290.783599 C184.725194,287.471096 186.021029,281.854425 186.021029,273.937752 L186.021029,266.016912 C186.021029,265.441912 185.875195,264.866911 185.587695,264.433578 C185.441861,264.287744 185.154361,264.146077 184.866861,264.146077 C184.579361,264.146077 184.433527,264.287744 184.146027,264.433578 C183.858527,264.866911 183.71686,265.441912 183.71686,266.016912 L183.71686,276.383587 C183.71686,282.000258 182.850193,286.175262 181.125191,288.908597 C179.829357,290.783599 178.387689,291.646099 176.804355,291.646099 C176.083521,291.646099 175.50852,291.358599 175.22102,290.783599 C174.646019,290.062765 174.358519,288.621097 174.358519,286.604429 L174.358519,220.95021 L184.725194,220.95021 C185.012694,220.95021 185.300195,220.808543 185.587695,220.662709 C185.729362,220.516876 185.875195,220.375209 185.875195,220.087709 C185.875195,219.800209 185.729362,219.654375 185.587695,219.512708 C185.300195,219.366875 185.012694,219.221042 184.725194,219.221042 L174.358519,219.221042 L174.358519,190.571019 C174.358519,190.425185 174.212686,190.137685 174.066852,189.996018 C173.925186,189.850185 173.779352,189.850185 173.491852,189.850185 C173.204352,189.850185 173.062685,189.996018 172.916851,190.137685 L172.771018,193.450188 C172.771018,194.458522 172.196017,196.47519 171.187683,199.354359 C169.891849,203.383529 168.308514,206.841865 166.43768,209.862701 C164.708511,212.887703 161.829343,215.912706 157.800173,218.933541 C157.366839,219.366875 157.221006,219.654375 157.221006,219.941875 C157.221006,220.229376 157.366839,220.516876 157.512672,220.662709 C157.800173,220.808543 158.087673,220.95021 158.51684,220.95021 L161.829343,220.95021 L161.829343,281.712758 Z" id="Shape" fill="#231F20"></path>
            <path d="M202.433542,294.237768 C202.433542,294.812769 202.433542,295.246102 202.575208,295.533603 C202.721042,295.533603 202.866875,295.675269 203.008542,295.675269 C203.296042,295.675269 203.729376,295.246102 204.16271,294.379435 C206.321045,290.637765 208.19188,286.896096 209.921048,282.862759 C211.504382,288.47943 212.941883,291.9336 214.529385,293.516934 C215.966886,294.958602 217.837721,295.675269 219.854389,295.675269 C223.600225,295.675269 226.766894,293.804435 229.358563,290.062765 C232.958566,284.446094 234.829401,275.662753 234.829401,263.712744 L234.829401,248.883565 C234.829401,240.533559 233.675233,233.333553 231.516898,227.287715 C230.508564,224.404379 229.21273,222.246044 227.487728,220.662709 C225.75856,219.079375 223.887726,218.358541 222.158557,218.358541 C219.421055,218.358541 216.97522,220.087709 214.958552,223.687712 L214.958552,188.987684 L199.841873,188.987684 C199.696039,188.987684 199.408539,188.987684 199.266872,189.129351 C199.121039,189.275184 199.121039,189.562684 199.121039,189.850185 C199.121039,190.137685 199.121039,190.425185 199.266872,190.571019 C199.408539,190.712685 199.696039,190.712685 199.841873,190.712685 L202.433542,190.712685 L202.433542,294.237768 Z M222.304391,285.741928 C222.304391,288.908597 221.871057,291.071099 221.008557,292.366933 C220.429389,293.229434 219.421055,293.662768 218.416888,293.662768 C217.408554,293.662768 216.68772,293.375268 216.254386,292.7961 C215.391885,292.079433 214.958552,291.212766 214.958552,290.637765 L214.958552,232.900219 C214.958552,228.437716 215.533552,225.271046 216.68772,223.400212 C217.408554,222.246044 218.416888,221.671043 219.712722,221.671043 C220.575223,221.671043 221.150223,221.958544 221.437724,222.391877 C222.012724,223.108545 222.304391,224.116879 222.304391,225.412713 L222.304391,285.741928 Z" id="Shape" fill="#231F20"></path>
            <path d="M260.908588,294.812769 L268.396094,294.812769 L266.958593,303.450276 C266.091926,309.21278 264.508591,313.387784 262.350256,315.979452 C260.621088,317.850287 259.037754,318.858621 257.308586,318.858621 C256.733585,318.858621 256.300251,318.712788 256.012751,318.571121 C255.871084,318.283621 255.725251,318.137787 255.725251,317.850287 C255.725251,317.416953 256.012751,316.987786 256.733585,316.554453 C259.183587,314.971118 260.333588,312.812783 260.333588,310.075281 C260.333588,308.346113 259.758588,306.762778 258.60442,305.612777 C257.454419,304.316943 256.158585,303.741942 254.57525,303.741942 C252.991915,303.741942 251.550248,304.45861 250.400247,305.754444 C249.104412,307.050278 248.525245,308.92528 248.525245,311.371115 C248.525245,314.250284 249.246079,316.554453 250.829414,318.425288 C252.412748,320.154456 254.141916,321.016956 256.158585,321.016956 C258.750253,321.016956 261.196089,319.721122 263.646091,316.987786 C266.091926,314.396118 267.675261,310.362781 268.396094,305.037777 L278.621103,231.029384 C279.196103,227.575215 280.058604,224.696046 281.500272,222.391877 C281.929439,221.671043 282.508606,221.096043 283.225273,220.95021 C283.51694,220.95021 283.80444,220.808543 283.946107,220.662709 C284.09194,220.516876 284.09194,220.375209 284.09194,220.087709 C284.09194,219.941875 283.946107,219.654375 283.80444,219.512708 C283.658607,219.366875 283.51694,219.221042 283.225273,219.221042 L272.571098,219.221042 C272.283598,219.221042 272.141931,219.366875 271.996097,219.512708 C271.854431,219.654375 271.854431,219.941875 271.854431,220.229376 C271.854431,220.516876 271.854431,220.808543 271.996097,220.95021 L273.004431,221.23771 C274.300266,221.383543 275.3086,221.958544 276.029434,222.966878 C276.746101,223.975212 277.037768,225.846047 277.037768,228.437716 C277.037768,229.73355 276.891935,231.175218 276.746101,232.758552 L270.846096,275.087753 L264.508591,220.95021 L267.675261,220.95021 C267.962761,220.95021 268.108594,220.808543 268.254428,220.662709 C268.396094,220.516876 268.541928,220.375209 268.541928,220.087709 C268.541928,219.800209 268.396094,219.654375 268.254428,219.512708 C268.108594,219.366875 267.962761,219.221042 267.675261,219.221042 L248.958579,219.221042 C248.525245,219.512708 248.237745,219.800209 248.237745,220.087709 C248.237745,220.375209 248.525245,220.662709 248.958579,220.95021 L252.271082,220.95021 L260.908588,294.812769 Z" id="Shape" fill="#231F20"></path>
            <path d="M4.42504994,46.7959036 L2.70004856,46.7959036 C2.5833818,46.7959036 2.46671504,46.854237 2.41254833,46.9084037 C2.35421495,46.966737 2.29588157,47.0250704 2.29588157,47.1417372 C2.29588157,47.2542373 2.35421495,47.3125706 2.41254833,47.370904 C2.46671504,47.4292374 2.5833818,47.4875708 2.70004856,47.4875708 L12.0292227,47.4875708 C12.0875561,47.4875708 12.2000562,47.4292374 12.2583895,47.370904 C12.3167229,47.3125706 12.3167229,47.2542373 12.3167229,47.1417372 C12.3167229,47.0250704 12.3167229,46.966737 12.2583895,46.9084037 C12.2000562,46.854237 12.0875561,46.7959036 12.0292227,46.7959036 L10.1875545,46.7959036 L10.1875545,26.4083873 C11.1083886,26.4667206 11.8542226,26.9250543 12.4917231,27.8458884 C13.4125571,29.2875562 13.8708908,31.3583912 13.8708908,34.0667267 L13.8708908,36.5417287 C13.8708908,36.6583955 13.9292242,36.7167288 13.9875576,36.8333956 L14.2167244,36.8875623 C14.2750578,36.8875623 14.3917246,36.8875623 14.4458913,36.8333956 C14.5042247,36.7750622 14.5042247,36.6583955 14.5042247,36.5417287 L14.5042247,15.4667118 C14.5042247,15.3500451 14.5042247,15.2917117 14.4458913,15.2333783 C14.3917246,15.1750449 14.2750578,15.1208782 14.2167244,15.1208782 C14.1042244,15.1208782 14.045891,15.1208782 13.9875576,15.1750449 C13.9292242,15.2333783 13.8708908,15.3500451 13.8708908,15.4667118 L13.8708908,17.0208797 C13.8708908,20.1875489 13.4125571,22.5500508 12.4333897,24.0458854 C11.8542226,25.0250528 11.0500552,25.6000533 10.1875545,25.6583867 L10.1875545,5.90420419 L11.166722,5.90420419 C12.0875561,5.90420419 12.7792233,6.02087095 13.237557,6.2500378 C13.7000574,6.42087127 14.1042244,6.76670488 14.3917246,7.28753863 C15.0250584,8.2083727 15.6583923,10.0500408 16.3500595,12.700043 C17.03756,15.3500451 17.441727,17.8250471 17.5583938,20.1292156 C17.5583938,20.6500493 17.6167272,20.9375495 17.6750605,20.9917163 C17.7292273,21.0500496 17.7875606,21.108383 17.9042274,21.108383 C17.9625608,21.108383 18.0750609,21.108383 18.1333942,21.0500496 C18.1917276,20.9917163 18.1917276,20.8792162 18.1917276,20.8208828 L18.1917276,5.15420359 L2.5833818,5.15420359 C2.41254833,5.27087035 2.29588157,5.38753711 2.29588157,5.5000372 C2.29588157,5.61670396 2.41254833,5.73337072 2.64171518,5.84587081 L4.42504994,5.84587081 L4.42504994,46.7959036 Z" id="Shape" fill="#231F20"></path>
            <path d="M33.3375731,46.7959036 L32.1875722,46.7959036 C32.0709054,46.7959036 32.012572,46.854237 31.9542386,46.9084037 C31.9000719,46.966737 31.8417385,47.0250704 31.8417385,47.1417372 C31.8417385,47.2542373 31.9000719,47.3125706 31.9542386,47.370904 C32.012572,47.4292374 32.0709054,47.4875708 32.1875722,47.4875708 L39.7292449,47.4875708 C39.8459116,47.4875708 39.9625784,47.4292374 40.0750785,47.370904 L40.1334118,47.1417372 C40.1334118,47.0250704 40.0750785,46.966737 40.0209117,46.9084037 C39.9625784,46.854237 39.8459116,46.7959036 39.7292449,46.7959036 L38.2917437,46.7959036 L38.2917437,26.4083873 C38.2917437,24.5083857 38.5209106,22.8375511 38.9250775,21.3375499 C39.3875779,19.8417153 39.8459116,18.8625479 40.4209121,18.2875474 C40.7084123,17.9417138 41.0542459,17.7667137 41.4000795,17.7667137 C41.5750797,17.7667137 41.7459131,17.8250471 41.8625799,17.9417138 C42.0334134,18.0583806 42.0917467,18.229214 42.0917467,18.4000475 C42.0917467,18.5750477 41.9209133,18.9792146 41.5750797,19.5542151 C40.8250791,20.6500493 40.4792455,21.8000502 40.4792455,23.0083845 C40.4792455,24.2167188 40.7084123,25.1958863 41.2292461,25.8333868 C41.633413,26.3500539 42.0917467,26.5792207 42.6125805,26.5792207 C43.300081,26.5792207 43.9334149,26.2333871 44.512582,25.4875532 C45.0875825,24.795886 45.3750827,23.7000518 45.3750827,22.3167173 C45.3750827,20.6500493 44.9709157,19.2667149 44.108415,18.1708807 C43.4167478,17.30838 42.6667472,16.904213 41.8042465,16.904213 C41.2292461,16.904213 40.5959122,17.1333798 40.0750785,17.6542136 C39.500078,18.1708807 38.9250775,19.2667149 38.2917437,20.9375495 L38.2917437,17.2500466 L32.1292388,17.2500466 C32.012572,17.2500466 31.9542386,17.30838 31.9000719,17.3667134 C31.8417385,17.4208801 31.7834052,17.4792134 31.7834052,17.5958802 C31.7834052,17.712547 31.8417385,17.7667137 31.9000719,17.8250471 C31.9542386,17.8833804 32.012572,17.9417138 32.1292388,17.9417138 L33.3375731,17.9417138 L33.3375731,46.7959036 Z" id="Shape" fill="#231F20"></path>
            <path d="M60.1750945,9.87920737 C60.7542617,10.4542078 61.4417622,10.7417081 62.2500962,10.7417081 C63.1125969,10.7417081 63.8042641,10.4542078 64.3792646,9.87920737 C64.9584317,9.30420691 65.2459319,8.61253969 65.2459319,7.74587233 C65.2459319,6.94170502 64.9584317,6.2500378 64.3792646,5.67503734 C63.8042641,5.09587021 63.0542635,4.80836998 62.2500962,4.80836998 C61.4417622,4.80836998 60.7542617,5.09587021 60.1750945,5.67503734 C59.6000941,6.2500378 59.3125938,6.94170502 59.3125938,7.74587233 C59.3125938,8.61253969 59.6000941,9.30420691 60.1750945,9.87920737 Z M59.7167608,46.7959036 L58.67926,46.7959036 C58.5084265,46.9084037 58.3917598,47.0250704 58.3917598,47.1417372 C58.3917598,47.2542373 58.5084265,47.370904 58.67926,47.4875708 L65.9375991,47.4875708 C66.0500992,47.4875708 66.1084326,47.4292374 66.166766,47.370904 C66.2250994,47.3125706 66.2834328,47.2542373 66.2834328,47.1417372 C66.2834328,47.0250704 66.2250994,46.966737 66.166766,46.9084037 C66.1084326,46.8542369 66.0500992,46.7959036 65.9375991,46.7959036 L64.7250982,46.7959036 L64.7250982,17.2500466 L58.6209266,17.2500466 C58.5084265,17.2500466 58.4500932,17.30838 58.3917598,17.3667134 C58.3334264,17.4208801 58.275093,17.4792134 58.275093,17.5958802 C58.275093,17.712547 58.3334264,17.7667137 58.3917598,17.8250471 C58.4500932,17.8833804 58.5084265,17.9417138 58.6209266,17.9417138 L59.7167608,17.9417138 L59.7167608,46.7959036 Z" id="Shape" fill="#231F20"></path>
            <path d="M84.2501138,47.3125706 C84.7667809,47.6584043 85.4042814,47.8334044 86.0917819,47.8334044 C87.4751164,47.8334044 88.7417841,47.2000706 89.7792849,45.9875696 C90.8167857,44.7792353 91.3334528,43.166734 91.3334528,41.1500657 C91.3334528,39.7708979 91.0459526,38.2125634 90.5292855,36.4292286 C89.954285,34.7000606 88.9167842,32.3375587 87.416783,29.3458896 C85.1709479,24.8542193 84.0792803,21.8000502 84.0792803,20.0708822 C84.0792803,19.379215 84.2501138,18.8625479 84.5959474,18.4583809 C85.0001144,18.0583806 85.4584481,17.8833804 85.9792818,17.8833804 C86.9001159,17.8833804 87.6501165,18.633381 88.2834504,20.1292156 C89.0876177,22.3167173 89.6084514,25.1417196 89.8376183,28.595889 C89.8959516,29.0583894 89.8959516,29.3458896 89.954285,29.4583897 C90.0084517,29.5167231 90.1251185,29.5750565 90.2417853,29.5750565 C90.295952,29.5750565 90.4126187,29.5167231 90.4709521,29.4583897 C90.5292855,29.404223 90.5876189,29.2875562 90.5876189,29.1708895 L90.5876189,17.30838 C90.5876189,17.2500466 90.5876189,17.1333798 90.5292855,17.0792131 C90.4709521,17.0208797 90.3542853,17.0208797 90.295952,17.0208797 C90.1834519,17.0208797 89.954285,17.1333798 89.6626181,17.4208801 C89.0876177,17.9417138 88.6834507,18.2875474 88.3959504,18.4583809 C87.3042829,17.4208801 86.2084487,16.904213 85.1126145,16.904213 C83.8459468,16.904213 82.7542793,17.4208801 81.8334452,18.5167143 C80.8542778,19.6125485 80.3917774,20.9917163 80.3917774,22.7208843 C80.3917774,23.7583851 80.6209442,24.9667194 81.0251112,26.3500539 C81.4292782,27.787555 82.2917789,30.0375568 83.7334467,33.1458927 C85.1709479,36.3125618 86.0917819,38.6167304 86.4959489,40.1125649 C86.9584493,41.6125661 87.1876161,42.8792338 87.1876161,43.9167346 C87.1876161,44.7792353 87.0167827,45.4709025 86.6126157,45.9875696 C86.2084487,46.45007 85.7459483,46.6792368 85.2876146,46.6792368 C84.3084472,46.6792368 83.4459465,45.8167361 82.7542793,44.0292347 C81.7751118,41.6125661 81.141778,38.558397 80.9084445,34.9875608 C80.8542778,34.4125603 80.8542778,34.1250601 80.7959444,34.0667267 C80.737611,34.0083933 80.6209442,33.95006 80.5084441,33.95006 C80.3917774,33.95006 80.333444,34.0083933 80.2751106,34.0667267 C80.2209439,34.1250601 80.1626105,34.2417269 80.1626105,34.3542269 L80.1626105,47.4875708 C80.1626105,47.6000709 80.1626105,47.7167376 80.2209439,47.775071 C80.2751106,47.775071 80.3917774,47.8334044 80.4501108,47.8334044 C80.6209442,47.8334044 80.9084445,47.6000709 81.3126115,47.0834038 C81.7751118,46.3917366 82.2334455,45.8750695 82.5792791,45.5875693 C83.1542796,46.45007 83.7334467,47.0250704 84.2501138,47.3125706 Z" id="Shape" fill="#231F20"></path>
            <path d="M106.483465,47.5459042 L107.287632,47.8334044 L107.979299,45.7000694 C109.075134,47.1417372 110.454301,47.8334044 112.066803,47.8334044 C113.854304,47.8334044 115.233472,47.0834038 116.270973,45.5875693 C117.712641,43.5125676 118.462641,40.0583982 118.462641,35.275061 L118.462641,29.1708895 C118.462641,25.0250528 117.770974,21.8583836 116.329306,19.4958817 L117.13764,17.0792131 L116.270973,17.0792131 L115.754306,18.7458811 C114.600138,17.5375468 113.33347,16.904213 111.895969,16.904213 C110.166801,16.904213 108.783467,17.6542136 107.750133,19.1500481 C106.250131,21.2250498 105.504297,24.5083857 105.504297,28.9417226 L105.504297,34.4125603 C105.504297,36.4292286 105.733464,38.7333971 106.137631,41.3833992 C106.308465,42.4167334 106.712632,43.570901 107.345966,44.8375687 L106.483465,47.5459042 Z M110.512635,19.8417153 C110.512635,19.0917147 110.629302,18.5750477 110.916802,18.229214 C111.204302,17.8833804 111.550136,17.712547 111.895969,17.712547 C112.300136,17.712547 112.700137,17.9417138 112.987637,18.3458808 C113.279304,18.7458811 113.450137,19.4958817 113.450137,20.5917159 L113.391804,26.0042203 L110.512635,34.9875608 L110.512635,19.8417153 Z M113.450137,44.4917351 C113.450137,45.5875693 113.33347,46.3334032 113.104304,46.6209034 C112.875137,46.966737 112.529303,47.1417372 112.066803,47.1417372 C111.666802,47.1417372 111.262635,46.966737 111.029302,46.5667367 C110.687635,46.045903 110.512635,45.0667355 110.512635,43.570901 L110.512635,37.7542297 L113.450137,28.5375556 L113.450137,44.4917351 Z" id="Shape" fill="#231F20"></path>
            <path d="M133.77932,46.7959036 L132.629319,46.7959036 C132.512652,46.7959036 132.454319,46.854237 132.400152,46.9084037 C132.341819,46.966737 132.283486,47.0250704 132.283486,47.1417372 C132.283486,47.2542373 132.341819,47.3125706 132.400152,47.370904 C132.454319,47.4292374 132.512652,47.4875708 132.629319,47.4875708 L140.175159,47.4875708 C140.287659,47.4875708 140.404325,47.4292374 140.516825,47.370904 L140.575159,47.1417372 C140.575159,47.0250704 140.516825,46.966737 140.462659,46.9084037 C140.404325,46.854237 140.287659,46.7959036 140.175159,46.7959036 L138.733491,46.7959036 L138.733491,26.4083873 C138.733491,24.5083857 138.962658,22.8375511 139.366825,21.3375499 C139.829325,19.8417153 140.287659,18.8625479 140.862659,18.2875474 C141.154326,17.9417138 141.495993,17.7667137 141.841827,17.7667137 C142.016827,17.7667137 142.18766,17.8250471 142.304327,17.9417138 C142.47516,18.0583806 142.533494,18.229214 142.533494,18.4000475 C142.533494,18.5750477 142.36266,18.9792146 142.016827,19.5542151 C141.266826,20.6500493 140.920992,21.8000502 140.920992,23.0083845 C140.920992,24.2167188 141.154326,25.1958863 141.670993,25.8333868 C142.07516,26.3500539 142.533494,26.5792207 143.054328,26.5792207 C143.745995,26.5792207 144.379329,26.2333871 144.954329,25.4875532 C145.529329,24.795886 145.81683,23.7000518 145.81683,22.3167173 C145.81683,20.6500493 145.412663,19.2667149 144.550162,18.1708807 C143.858495,17.30838 143.108494,16.904213 142.245994,16.904213 C141.670993,16.904213 141.037659,17.1333798 140.516825,17.6542136 C139.941825,18.1708807 139.366825,19.2667149 138.733491,20.9375495 L138.733491,17.2500466 L132.570986,17.2500466 C132.454319,17.2500466 132.400152,17.30838 132.341819,17.3667134 C132.283486,17.4208801 132.225152,17.4792134 132.225152,17.5958802 C132.225152,17.712547 132.283486,17.7667137 132.341819,17.8250471 C132.400152,17.8833804 132.454319,17.9417138 132.570986,17.9417138 L133.77932,17.9417138 L133.77932,46.7959036 Z" id="Shape" fill="#231F20"></path>
            <path d="M172.021017,32.4542254 L172.021017,27.8458884 C172.021017,24.795886 171.50435,22.2042172 170.408516,20.0708822 C169.316849,17.9417138 167.816847,16.904213 165.800179,16.904213 C164.133511,16.904213 162.691843,17.712547 161.541842,19.379215 C159.871008,21.7417169 159.062674,25.1417196 159.062674,29.6333898 L159.062674,33.7792265 C159.062674,39.6542312 159.696007,43.4542342 160.908508,45.1834023 C162.116843,46.966737 163.671011,47.8334044 165.512679,47.8334044 C167.529347,47.8334044 169.083515,46.6792368 170.237683,44.3750683 C171.446017,42.1292332 172.021017,39.3083976 172.021017,35.9667282 C172.021017,35.3917278 171.962684,35.0458942 171.908517,34.8750607 C171.79185,34.7583939 171.675184,34.7000606 171.562684,34.7000606 C171.387684,34.7000606 171.275183,34.7583939 171.21685,34.9292274 C171.100183,35.1042275 171.04185,35.7375614 171.04185,36.8333956 C170.92935,40.287565 170.237683,42.9959005 168.854348,45.0084021 C167.991847,46.2209031 167.071013,46.7959036 166.033513,46.7959036 C165.400179,46.7959036 164.937678,46.6209034 164.650178,46.2209031 C164.246011,45.7000694 164.075178,44.6084018 164.075178,42.9375671 L164.075178,32.4542254 L172.021017,32.4542254 Z M164.075178,31.7625582 L164.075178,19.7250486 C164.075178,18.9792146 164.246011,18.4583809 164.533511,18.0583806 C164.821012,17.712547 165.225179,17.5375468 165.629346,17.5375468 C166.033513,17.5375468 166.379346,17.6542136 166.55018,17.9417138 C166.83768,18.3458808 167.01268,18.9208813 167.01268,19.7250486 L167.01268,31.7625582 L164.075178,31.7625582 Z" id="Shape" fill="#231F20"></path>
            <path d="M187.225196,46.7959036 L186.075195,46.7959036 C185.958528,46.7959036 185.900195,46.854237 185.846028,46.9084037 C185.787695,46.966737 185.729362,47.0250704 185.729362,47.1417372 C185.729362,47.2542373 185.787695,47.3125706 185.846028,47.370904 C185.900195,47.4292374 185.958528,47.4875708 186.075195,47.4875708 L193.621035,47.4875708 C193.733535,47.4875708 193.850201,47.4292374 193.966868,47.370904 L194.021035,47.1417372 C194.021035,47.0250704 193.966868,46.966737 193.908535,46.9084037 C193.850201,46.854237 193.733535,46.7959036 193.621035,46.7959036 L192.179367,46.7959036 L192.179367,26.4083873 C192.179367,24.5083857 192.408534,22.8375511 192.812701,21.3375499 C193.275201,19.8417153 193.733535,18.8625479 194.308535,18.2875474 C194.600202,17.9417138 194.946036,17.7667137 195.287703,17.7667137 C195.462703,17.7667137 195.633536,17.8250471 195.750203,17.9417138 C195.925203,18.0583806 195.97937,18.229214 195.97937,18.4000475 C195.97937,18.5750477 195.808536,18.9792146 195.462703,19.5542151 C194.712702,20.6500493 194.366869,21.8000502 194.366869,23.0083845 C194.366869,24.2167188 194.600202,25.1958863 195.116869,25.8333868 C195.521036,26.3500539 195.97937,26.5792207 196.500204,26.5792207 C197.191871,26.5792207 197.825205,26.2333871 198.400205,25.4875532 C198.975206,24.795886 199.262706,23.7000518 199.262706,22.3167173 C199.262706,20.6500493 198.858539,19.2667149 197.996038,18.1708807 C197.304371,17.30838 196.558537,16.904213 195.69187,16.904213 C195.116869,16.904213 194.483535,17.1333798 193.966868,17.6542136 C193.387701,18.1708807 192.812701,19.2667149 192.179367,20.9375495 L192.179367,17.2500466 L186.016862,17.2500466 C185.900195,17.2500466 185.846028,17.30838 185.787695,17.3667134 C185.729362,17.4208801 185.671028,17.4792134 185.671028,17.5958802 C185.671028,17.712547 185.729362,17.7667137 185.787695,17.8250471 C185.846028,17.8833804 185.900195,17.9417138 186.016862,17.9417138 L187.225196,17.9417138 L187.225196,46.7959036 Z" id="Shape" fill="#231F20"></path>
            <path d="M213.721051,46.7959036 L212.50855,46.7959036 C212.337716,46.9084037 212.22105,47.0250704 212.22105,47.1417372 C212.22105,47.2542373 212.337716,47.370904 212.50855,47.4875708 L219.362722,47.4875708 C219.537722,47.370904 219.650222,47.2542373 219.650222,47.1417372 C219.650222,47.0250704 219.537722,46.9084037 219.362722,46.7959036 L218.671055,46.7959036 L218.671055,23.7000518 C218.671055,21.8583836 218.958555,20.5333826 219.479389,19.7250486 C219.825222,19.2083815 220.229389,18.9208813 220.687723,18.9208813 C220.975223,18.9208813 221.208557,19.0333814 221.321057,19.2083815 C221.496057,19.4375483 221.550224,19.783382 221.550224,20.3583824 L221.550224,46.7959036 L221.033557,46.7959036 C220.91689,46.7959036 220.862723,46.854237 220.80439,46.9084037 C220.746056,46.966737 220.687723,47.0250704 220.687723,47.1417372 C220.687723,47.2542373 220.746056,47.3125706 220.80439,47.370904 C220.862723,47.4292374 220.91689,47.4875708 221.033557,47.4875708 L227.541895,47.4875708 C227.658562,47.4875708 227.712729,47.4292374 227.771062,47.370904 C227.829395,47.3125706 227.887729,47.2542373 227.887729,47.1417372 C227.887729,47.0250704 227.829395,46.966737 227.771062,46.9084037 C227.712729,46.854237 227.658562,46.7959036 227.541895,46.7959036 L226.562728,46.7959036 L226.562728,21.51255 C226.562728,19.9000487 226.216894,18.6917144 225.466893,17.8250471 C224.950226,17.1917132 224.087726,16.904213 222.933558,16.904213 C222.012724,16.904213 221.262723,17.0792131 220.62939,17.4792134 C219.996056,17.8833804 219.304389,18.5750477 218.671055,19.5542151 L218.671055,17.2500466 L212.50855,17.2500466 C212.337716,17.3667134 212.279383,17.4792134 212.279383,17.5958802 C212.279383,17.712547 212.279383,17.8250471 212.337716,17.8833804 L212.50855,17.9417138 L213.721051,17.9417138 L213.721051,46.7959036 Z" id="Shape" fill="#231F20"></path>
            <path d="M254.496083,32.4542254 L254.496083,27.8458884 C254.496083,24.795886 253.97525,22.2042172 252.883582,20.0708822 C251.787748,17.9417138 250.291913,16.904213 248.275245,16.904213 C246.60441,16.904213 245.166909,17.712547 244.012742,19.379215 C242.341907,21.7417169 241.53774,25.1417196 241.53774,29.6333898 L241.53774,33.7792265 C241.53774,39.6542312 242.171073,43.4542342 243.379408,45.1834023 C244.587742,46.966737 246.146077,47.8334044 247.987745,47.8334044 C250.004413,47.8334044 251.558581,46.6792368 252.708582,44.3750683 C253.921083,42.1292332 254.496083,39.3083976 254.496083,35.9667282 C254.496083,35.3917278 254.43775,35.0458942 254.379417,34.8750607 C254.266916,34.7583939 254.15025,34.7000606 254.033583,34.7000606 C253.862749,34.7000606 253.746083,34.7583939 253.687749,34.9292274 C253.575249,35.1042275 253.516916,35.7375614 253.516916,36.8333956 C253.400249,40.287565 252.708582,42.9959005 251.329414,45.0084021 C250.462747,46.2209031 249.541913,46.7959036 248.504412,46.7959036 C247.871078,46.7959036 247.412744,46.6209034 247.125244,46.2209031 C246.721077,45.7000694 246.546077,44.6084018 246.546077,42.9375671 L246.546077,32.4542254 L254.496083,32.4542254 Z M246.546077,31.7625582 L246.546077,19.7250486 C246.546077,18.9792146 246.721077,18.4583809 247.008577,18.0583806 C247.296078,17.712547 247.700245,17.5375468 248.104412,17.5375468 C248.504412,17.5375468 248.850245,17.6542136 249.025246,17.9417138 C249.312746,18.3458808 249.483579,18.9208813 249.483579,19.7250486 L249.483579,31.7625582 L246.546077,31.7625582 Z" id="Shape" fill="#231F20"></path>
        </g>
    </g>
</svg>